<svg id="Layer_1" data-name="Layer 1" xmlns="http://www.w3.org/2000/svg" viewBox="0 0 1048.32 271.04"><title>logo</title><path d="M1051.68,278a39.13,39.13,0,0,1-39.13,39.13H46.81A39.13,39.13,0,0,1,7.68,278h0a39.13,39.13,0,0,1,39.13-39.13h965.74A39.13,39.13,0,0,1,1051.68,278Z" transform="translate(-5.52 -48.22)" style="fill:none;stroke:#21368b;stroke-width:4.32px"/><path d="M93.25,110.92" transform="translate(-5.52 -48.22)" style="fill:#fff;stroke:#231f20;stroke-width:2.3244000000000002px"/><polyline points="31.97 175.1 137.21 175.1 87.65 59.47 31.35 173.26" style="fill:#21368b"/><polygon points="229.9 59.44 320.31 59.44 320.31 103.4 298.63 103.4 298.63 174.61 250.5 175.13 250.33 102.78 229.9 102.79 229.9 59.44" style="fill:#21368b"/><path d="M432.06,92.19l-.61,30.53S411.91,105,388.7,104.4s-47.34,12.14-54.34,39.08c-4.95,19-6.46,47.69,15.87,65.34,14.09,11.13,44,19.54,67.78,5.49S444.74,182,446,179.55s1.36-91,1.36-91,9.82,6.82,31.15,8.55,38.45-2.32,49.46-7.94,30.58-26.41,30.58-26.41-26.3,6.73-44.65,2.44-26.85-9-32.34-16.94C472.66,57.08,432.06,92.19,432.06,92.19Z" transform="translate(-5.52 -48.22)" style="fill:#ee3124"/><path d="M582.9,147.82l13.22-13.46s-5.72-27.47-38.27-27.47c-30.92,3.71-50.57,37.7-27.5,61.74-5.68,7.46-5.54,7.22-14.49,19.09,0,0,4.52,29.13,29.7,34.66S589.79,209.47,594.1,199s6.75-23.95,1.83-35.63S582.9,147.82,582.9,147.82Z" transform="translate(-5.52 -48.22)" style="fill:#21368b"/><path d="M716.37,164.71a57.78,57.78,0,1,1-57.77-57.79A57.77,57.77,0,0,1,716.37,164.71Z" transform="translate(-5.52 -48.22)" style="fill:#21368b"/><path d="M796.61,106.87h15.26V173.4c0,35-19.27,49.14-45.09,49.14-24.4,0-42.8-13.16-42.8-48.63v-67Z" transform="translate(-5.52 -48.22)" style="fill:#21368b"/><path d="M832.81,222.54H817.54V156c0-35,19.28-49.14,45.09-49.14,24.41,0,42.8,13.17,42.8,48.64v67Z" transform="translate(-5.52 -48.22)" style="fill:#21368b"/><path d="M212.57,107.67h15.26v66.54c0,35-19.27,49.14-45.09,49.14-24.4,0-42.79-13.17-42.79-48.64v-67Z" transform="translate(-5.52 -48.22)" style="fill:#21368b"/><path d="M915.57,106.86h55.54c12.29,0,27.69,5.72,38.17,27,2.46,4.76,5.25,13.81,5.25,25.71,0,20.16-5.41,34.44-11,42.69-8.19,12.38-21.63,20.31-34.08,20.31h-53.9Z" transform="translate(-5.52 -48.22)" style="fill:#21368b"/><path d="M49.05,252.49l6,29.41,5.86-29.41h8.55l5.86,29.73,6-29.73h8.55l-11,39.19H71.68l-6.5-29.89-6.45,29.89H51.47l-11-39.19Z" transform="translate(-5.52 -48.22)" style="fill:#ee3124"/><path d="M104.06,279.48a6.42,6.42,0,0,0,.91,4.67,6.29,6.29,0,0,0,6.35,2.59c2.15-.44,4-1.78,4.35-3.29h7.42c-1.29,5.65-8.17,9.47-13.28,9.47a14.44,14.44,0,0,1-7.58-2.21A12.94,12.94,0,0,1,97,283.78a30.8,30.8,0,0,1-.53-3.55,27.85,27.85,0,0,1,.27-6.24c1.88-11.4,9.78-11.93,13.12-11.93a12.57,12.57,0,0,1,11.07,5.75c2.64,4.25,2.64,8.17,2.47,11.67Zm11.56-5.06c0-2.2-.76-5.86-5.27-6.07a5.7,5.7,0,0,0-6.29,6.07Z" transform="translate(-5.52 -48.22)" style="fill:#ee3124"/><path d="M169.68,291.68l-7-31.72v31.72h-8.07V252.49H166.4l7.31,30.1,7.31-30.1H192.8v39.19h-8.07V260l-7,31.72Z" transform="translate(-5.52 -48.22)" style="fill:#ee3124"/><path d="M220.76,291.68a4.67,4.67,0,0,1-.8-2.9c-2.64,2.47-5,4.14-9.36,4.14-5.91,0-8.82-3.34-8.6-9,.16-4.09,1.77-8.07,8.44-9.19A30.21,30.21,0,0,0,218,273.4a3.09,3.09,0,0,0,1.88-3.28c0-1.83-1.5-2.63-4.94-2.63-4.31,0-4.84,2.63-5,4.73h-7.1c.11-9.3,8.07-10.16,12.05-10.16a19.79,19.79,0,0,1,6.88,1.07c2.9,1.19,5.21,3.55,5.21,8.17v15.92a4.62,4.62,0,0,0,1.67,3.44v1ZM219.9,278c-2.15,1.29-5.05,1.18-7,1.56-2.31.43-3.92,2.37-3.28,4.73.43,1.72,1.78,3,5,2.42,4.47-.7,5.27-3.82,5.27-7Z" transform="translate(-5.52 -48.22)" style="fill:#ee3124"/><path d="M245.83,252.49v21.4h.1l9.41-11.35h8.6l-9.84,11.13,10.49,18h-8.82l-6.83-12.47-3.11,3.38v9.09H238.3V252.49Z" transform="translate(-5.52 -48.22)" style="fill:#ee3124"/><path d="M278.52,279.48a6.37,6.37,0,0,0,.92,4.67,6.27,6.27,0,0,0,6.34,2.59c2.15-.44,4-1.78,4.36-3.29h7.42c-1.29,5.65-8.18,9.47-13.28,9.47a14.5,14.5,0,0,1-7.59-2.21,12.92,12.92,0,0,1-5.21-6.93,25.38,25.38,0,0,1-.27-9.79c1.88-11.4,9.79-11.93,13.12-11.93a12.57,12.57,0,0,1,11.08,5.75c2.63,4.25,2.63,8.17,2.47,11.67Zm11.56-5.06c0-2.2-.75-5.86-5.27-6.07s-6.34,3.33-6.29,6.07Z" transform="translate(-5.52 -48.22)" style="fill:#ee3124"/><path d="M328.78,252.49H347c4,0,9.09,1.93,12.53,9.13a20.37,20.37,0,0,1,1.72,8.72c0,6.83-1.77,11.66-3.6,14.46-2.69,4.19-7.1,6.88-11.18,6.88H328.78ZM336.84,285h6.45c3.71,0,6.67-1.4,8.45-5.27a20.2,20.2,0,0,0,1.39-8.33c0-3.28-.59-6.56-2-8.55-2-3-4.14-3.6-7-3.6h-7.26Z" transform="translate(-5.52 -48.22)" style="fill:#ee3124"/><path d="M371.53,262.54h7.53v5.64h.1c.49-1.72.86-2.74,3.5-4.56a6.8,6.8,0,0,1,5.38-1.56v7.69c-3.23-.38-8.07-.81-9,5.53v16.4h-7.53Z" transform="translate(-5.52 -48.22)" style="fill:#ee3124"/><path d="M397.34,252.49h7.53v6.72h-7.53Zm0,10.05h7.53v29.14h-7.53Z" transform="translate(-5.52 -48.22)" style="fill:#ee3124"/><path d="M422.08,262.54l6.08,21.35,6.07-21.35h8l-10.11,29.14h-7.9l-10.05-29.14Z" transform="translate(-5.52 -48.22)" style="fill:#ee3124"/><path d="M449.21,252.49h7.53v6.72h-7.53Zm0,10.05h7.53v29.14h-7.53Z" transform="translate(-5.52 -48.22)" style="fill:#ee3124"/><path d="M468.68,262.54h7.53V267h.11a8.08,8.08,0,0,1,7.15-4.89c6.67,0,11.18,2.79,11.18,10.11v19.51h-7.52V274.37c0-2.58-.33-5.65-5.43-5.65-4.58,0-5.49,2.53-5.49,4.89v18.07h-7.53Z" transform="translate(-5.52 -48.22)" style="fill:#ee3124"/><path d="M531.87,262.54v29.89a10.56,10.56,0,0,1-4.57,8.77c-1.94,1.23-4.52,2.26-10,2.26-8,0-12.21-3.71-12.21-8.39H513c0,1.66,1.83,3.28,5.27,3.28s6.62-2.37,6.56-5.59v-4.09c-2.26,2.47-3.87,4.25-7.85,4.25s-6-.81-8.38-3.23c-5.6-5.7-5.11-18.49.32-24.14a10.44,10.44,0,0,1,8.17-3.49c4.62.26,5.65,2.42,7.74,4.89v-4.41Zm-19.09,9.63a12.28,12.28,0,0,0,0,11.39,6,6,0,0,0,10.75,0,12.28,12.28,0,0,0,0-11.39,6,6,0,0,0-10.75,0Z" transform="translate(-5.52 -48.22)" style="fill:#ee3124"/><path d="M580.89,291.68l-7-31.72v31.72h-8.06V252.49h11.78l7.31,30.1,7.31-30.1H604v39.19H596V260l-7,31.72Z" transform="translate(-5.52 -48.22)" style="fill:#ee3124"/><path d="M618,289.37c-2.91-2.63-4.31-7.15-4.31-11.88s1.4-9.25,4.31-11.89a16,16,0,0,1,20.1,0c2.91,2.64,4.3,7.16,4.3,11.89s-1.39,9.25-4.3,11.88a16,16,0,0,1-20.1,0Zm4.67-17.58a12.3,12.3,0,0,0,0,11.4,6.05,6.05,0,0,0,10.76,0,12.3,12.3,0,0,0,0-11.4,6.05,6.05,0,0,0-10.76,0Z" transform="translate(-5.52 -48.22)" style="fill:#ee3124"/><path d="M652.69,262.54h7.52v5.64h.11c.48-1.72.86-2.74,3.49-4.56a6.82,6.82,0,0,1,5.38-1.56v7.69c-3.22-.38-8.06-.81-9,5.53v16.4h-7.52Z" transform="translate(-5.52 -48.22)" style="fill:#ee3124"/><path d="M683.71,279.48a6.37,6.37,0,0,0,.92,4.67,6.27,6.27,0,0,0,6.34,2.59c2.15-.44,4-1.78,4.36-3.29h7.42c-1.29,5.65-8.17,9.47-13.28,9.47a14.44,14.44,0,0,1-7.58-2.21,12.94,12.94,0,0,1-5.22-6.93,30,30,0,0,1-.54-3.55,29.09,29.09,0,0,1,.27-6.24c1.89-11.4,9.79-11.93,13.12-11.93a12.57,12.57,0,0,1,11.08,5.75c2.63,4.25,2.63,8.17,2.47,11.67Zm11.57-5.06c0-2.2-.76-5.86-5.27-6.07a5.71,5.71,0,0,0-6.3,6.07Z" transform="translate(-5.52 -48.22)" style="fill:#ee3124"/><path d="M761.75,252.49v6.72H741.42v8.92h18.77v6.72H741.42V285h21.24v6.72h-29.3V252.49Z" transform="translate(-5.52 -48.22)" style="fill:#ee3124"/><path d="M773.1,262.54h7.52V267h.11a8.08,8.08,0,0,1,7.15-4.89c6.67,0,11.19,2.79,11.19,10.11v19.51h-7.53V274.37c0-2.58-.32-5.65-5.43-5.65-4.57,0-5.49,2.53-5.49,4.89v18.07H773.1Z" transform="translate(-5.52 -48.22)" style="fill:#ee3124"/><path d="M811,262.54h7.52v34.57c-.05,2.74-1.77,5.43-4.4,5.92a39.71,39.71,0,0,1-6.67.43v-6.19c1.34,0,3.55.43,3.55-2Zm0-10.05h7.52v6.72H811Z" transform="translate(-5.52 -48.22)" style="fill:#ee3124"/><path d="M833,289.37c-2.9-2.63-4.3-7.15-4.3-11.88s1.4-9.25,4.3-11.89a16.05,16.05,0,0,1,20.11,0c2.9,2.64,4.3,7.16,4.3,11.89s-1.4,9.25-4.3,11.88a16,16,0,0,1-20.11,0Zm4.68-17.58a12.3,12.3,0,0,0,0,11.4,6,6,0,0,0,10.75,0,12.3,12.3,0,0,0,0-11.4,6,6,0,0,0-10.75,0Z" transform="translate(-5.52 -48.22)" style="fill:#ee3124"/><path d="M873.18,262.54l6.29,21.18,6.07-21.18h7.75L880.92,297.7a8.56,8.56,0,0,1-2.2,3.71c-1.67,1.78-7.48,2-9.84,2v-6.13a7.52,7.52,0,0,0,4.67-.76,4,4,0,0,0,1.51-4.89l-10.21-29.14Z" transform="translate(-5.52 -48.22)" style="fill:#ee3124"/><path d="M919.16,291.68a4.74,4.74,0,0,1-.81-2.9c-2.64,2.47-5,4.14-9.35,4.14-5.92,0-8.82-3.34-8.61-9,.16-4.09,1.78-8.07,8.44-9.19a30.13,30.13,0,0,0,7.58-1.35,3.09,3.09,0,0,0,1.89-3.28c0-1.83-1.51-2.63-4.95-2.63-4.3,0-4.84,2.63-5,4.73h-7.09c.1-9.3,8.06-10.16,12-10.16a19.79,19.79,0,0,1,6.88,1.07c2.91,1.19,5.22,3.55,5.22,8.17v15.92a4.58,4.58,0,0,0,1.67,3.44v1ZM918.3,278c-2.15,1.29-5.06,1.18-7,1.56-2.31.43-3.93,2.37-3.28,4.73.43,1.72,1.77,3,5,2.42,4.46-.7,5.27-3.82,5.27-7Z" transform="translate(-5.52 -48.22)" style="fill:#ee3124"/><path d="M936.69,252.49h7.53v14h.11c1.07-2.48,3.33-4.68,8.22-4.46,2.75.16,7.53,1,10,6.61,3,7,2.1,12.31-.32,17.53C960,291,957,293.13,951.7,292.92a9.28,9.28,0,0,1-7.37-4.14h-.11v2.9h-7.53Zm8.82,19.41a13.22,13.22,0,0,0,0,11.39,5.49,5.49,0,0,0,10,0,13.22,13.22,0,0,0,0-11.39,5.49,5.49,0,0,0-10,0Z" transform="translate(-5.52 -48.22)" style="fill:#ee3124"/><path d="M982.19,252.49v39.19h-7.53V252.49Z" transform="translate(-5.52 -48.22)" style="fill:#ee3124"/><path d="M999.51,279.48a6.42,6.42,0,0,0,.91,4.67,6.28,6.28,0,0,0,6.34,2.59c2.16-.44,4-1.78,4.36-3.29h7.42c-1.29,5.65-8.17,9.47-13.28,9.47a14.44,14.44,0,0,1-7.58-2.21,12.94,12.94,0,0,1-5.22-6.93,30.8,30.8,0,0,1-.53-3.55,27.85,27.85,0,0,1,.27-6.24c1.88-11.4,9.78-11.93,13.11-11.93a12.57,12.57,0,0,1,11.08,5.75c2.63,4.25,2.63,8.17,2.47,11.67Zm11.56-5.06c0-2.2-.76-5.86-5.27-6.07a5.7,5.7,0,0,0-6.29,6.07Z" transform="translate(-5.52 -48.22)" style="fill:#ee3124"/></svg>